<?xml version="1.0" encoding="utf-8"?>
<!-- Generator: Adobe Illustrator 23.0.3, SVG Export Plug-In . SVG Version: 6.00 Build 0)  -->
<svg version="1.1" id="Layer_1" xmlns="http://www.w3.org/2000/svg" xmlns:xlink="http://www.w3.org/1999/xlink" x="0px" y="0px"
	 viewBox="0 0 300 111.1" style="enable-background:new 0 0 300 111.1;" xml:space="preserve">
<style type="text/css">
	.st0{fill:#231F20;}
	.st1{fill:#FFFFFF;}
	.st2{fill:#BC4A18;}
</style>
<g>
	<g>
		<polygon class="st0" points="59,13.1 59,65.8 48.1,65.8 42.7,45.8 54.5,13.1 		"/>
		<polygon class="st0" points="60.8,13.1 60.8,65.8 71.7,65.8 77,45.8 65.2,13.1 		"/>
		<rect x="58.3" y="37.8" class="st0" width="3.3" height="28.3"/>
	</g>
	<g>
		<circle class="st1" cx="59.9" cy="41.3" r="4.9"/>
	</g>
	<rect x="48.1" y="100.3" class="st0" width="23.6" height="10"/>
	<g>
		<rect x="24" y="3.9" class="st0" width="71.7" height="0.7"/>
		<g>
			<rect x="2.7" y="54.9" class="st0" width="6.9" height="6.9"/>
			<rect x="110.2" y="54.9" class="st0" width="6.9" height="6.9"/>
		</g>
		<g>
			<circle class="st0" cx="23.6" cy="4.4" r="2.2"/>
			<circle class="st0" cx="96.1" cy="4.4" r="2.2"/>
		</g>
		<path class="st0" d="M114.2,58.2h-0.7c0-29.6-24-53.6-53.6-53.6S6.5,28.6,6.5,58.2H5.8c0-30,24.3-54.3,54.1-54.3
			S114.2,28.2,114.2,58.2z"/>
		<rect x="56.5" y="0.8" class="st0" width="6.9" height="6.9"/>
	</g>
	<g>
		<path class="st2" d="M1.3,70.9h11.8c3.8,0,6.5,1.1,8.2,2.7c1.6,1.3,2.2,3.3,2.2,5.8l0,0c0,3.8-2,6.5-5.1,7.8l6,8.7h-8l-5.1-7.6
			l0,0H8.2v7.6H1.3V70.9z M12.9,82.9c2.4,0,3.8-1.1,3.8-2.9l0,0c0-2-1.3-2.9-3.8-2.9H8.2v6h4.7V82.9z"/>
		<path class="st2" d="M27.2,70.9h20.3v6H34.1v3.8h12v5.6h-12v4h13.6v6H27.2C27.2,96.3,27.2,70.9,27.2,70.9z"/>
		<path class="st2" d="M57.4,77.1h-7.6v-6h22v6h-7.6v19.1h-6.9V77.1z"/>
		<path class="st2" d="M73,83.6L73,83.6c0-7.3,5.8-13.1,13.6-13.1s13.6,5.8,13.6,13.1l0,0c0,7.3-5.8,13.1-13.6,13.1S73,90.9,73,83.6
			z M93,83.6L93,83.6c0-3.8-2.7-6.9-6.5-6.9s-6.5,3.1-6.5,6.7l0,0c0,3.6,2.7,6.9,6.5,6.9S93,87.2,93,83.6z"/>
		<path class="st2" d="M103.5,85.2V70.9h7.1v14c0,3.6,1.8,5.3,4.7,5.3c2.9,0,4.7-1.6,4.7-5.1V70.9h7.1v14c0,8.2-4.7,11.8-11.8,11.8
			C107.9,96.5,103.5,92.9,103.5,85.2z"/>
		<path class="st2" d="M130.2,83.6L130.2,83.6c0-7.3,5.6-13.1,13.4-13.1c5.1,0,8.5,2.2,10.7,5.3l-5.3,4c-1.3-1.8-3.1-2.9-5.6-2.9
			c-3.6,0-6,2.9-6,6.7l0,0c0,3.8,2.4,6.7,6,6.7c2.7,0,4.2-1.1,5.8-3.1l5.3,3.8c-2.4,3.3-5.6,5.8-11.1,5.8
			C136,96.7,130.2,91.2,130.2,83.6z"/>
		<path class="st2" d="M157.3,70.9h6.9v9.3h8.9v-9.3h6.9v25.1h-6.7v-9.6h-8.9v9.6h-6.9V70.9H157.3z"/>
		<path class="st2" d="M194.7,70.9h12.9c3.1,0,5.3,0.9,6.9,2.2c1.1,1.1,1.6,2.4,1.6,4l0,0c0,2.9-1.6,4.7-3.8,5.6
			c3.1,1.1,4.9,2.7,4.9,6.2l0,0c0,4.2-3.6,6.9-9.6,6.9h-12.9C194.7,95.8,194.7,70.9,194.7,70.9z M205.9,80.9c2.2,0,3.3-0.7,3.3-2.2
			l0,0c0-1.3-1.1-2.2-3.1-2.2h-4.5v4.5H205.9z M207,90.5c2.2,0,3.3-0.9,3.3-2.2l0,0c0-1.3-1.1-2.2-3.3-2.2h-5.3v4.7h5.3V90.5z"/>
		<path class="st2" d="M229.2,70.7h6.7l10.7,25.4H239l-1.8-4.5h-9.8l-1.8,4.5h-7.3L229.2,70.7z M235.2,86.3l-2.9-7.1l-2.9,7.1H235.2
			z"/>
		<path class="st2" d="M249,70.9h12c3.8,0,6.5,1.1,8.2,2.7c1.6,1.3,2.2,3.3,2.2,5.8l0,0c0,3.8-2,6.5-5.1,7.8l6,8.7h-8l-5.1-7.6l0,0
			h-2.9v7.6H249V70.9z M260.6,82.9c2.4,0,3.8-1.1,3.8-2.9l0,0c0-2-1.3-2.9-3.8-2.9h-4.7v6h4.7V82.9z"/>
		<path class="st2" d="M274.8,70.9h6.5l10.5,13.4V70.9h6.9v25.1h-6L282,82.3v13.8h-6.9V70.9H274.8z"/>
	</g>
</g>
</svg>
